<?xml version="1.0" encoding="UTF-8" standalone="no"?>
<!-- Created with Inkscape (http://www.inkscape.org/) -->

<svg
   xmlns:svg="http://www.w3.org/2000/svg"
   xmlns="http://www.w3.org/2000/svg"
   xmlns:xlink="http://www.w3.org/1999/xlink"
   version="1.0"
   width="48"
   height="48"
   id="svg2">
  <defs
     id="defs4">
    <linearGradient
       id="linearGradient3481">
      <stop
         id="stop3483"
         style="stop-color:#2e3436;stop-opacity:1"
         offset="0" />
      <stop
         id="stop3485"
         style="stop-color:#2e3436;stop-opacity:0"
         offset="1" />
    </linearGradient>
    <linearGradient
       id="linearGradient3406">
      <stop
         id="stop3408"
         style="stop-color:#7c0000;stop-opacity:1"
         offset="0" />
      <stop
         id="stop3410"
         style="stop-color:#2e3436;stop-opacity:1"
         offset="1" />
    </linearGradient>
    <linearGradient
       id="linearGradient3398">
      <stop
         id="stop3400"
         style="stop-color:#eeeeec;stop-opacity:1"
         offset="0" />
      <stop
         id="stop3402"
         style="stop-color:#888a85;stop-opacity:1"
         offset="1" />
    </linearGradient>
    <linearGradient
       id="linearGradient3383">
      <stop
         id="stop3385"
         style="stop-color:#ffffff;stop-opacity:1"
         offset="0" />
      <stop
         id="stop3387"
         style="stop-color:#ffffff;stop-opacity:0"
         offset="1" />
    </linearGradient>
    <linearGradient
       id="linearGradient3352">
      <stop
         id="stop3354"
         style="stop-color:#2e3436;stop-opacity:1"
         offset="0" />
      <stop
         id="stop3360"
         style="stop-color:#2e3436;stop-opacity:1"
         offset="0.44625017" />
      <stop
         id="stop3362"
         style="stop-color:#000000;stop-opacity:0"
         offset="0.44625017" />
      <stop
         id="stop3356"
         style="stop-color:#000000;stop-opacity:0"
         offset="1" />
    </linearGradient>
    <linearGradient
       id="linearGradient3338">
      <stop
         id="stop3340"
         style="stop-color:#ffffff;stop-opacity:0.80000001"
         offset="0" />
      <stop
         id="stop3342"
         style="stop-color:#ffffff;stop-opacity:0"
         offset="1" />
    </linearGradient>
    <linearGradient
       id="linearGradient3326">
      <stop
         id="stop3328"
         style="stop-color:#ffffff;stop-opacity:0.80000001"
         offset="0" />
      <stop
         id="stop3330"
         style="stop-color:#ffffff;stop-opacity:0"
         offset="1" />
    </linearGradient>
    <linearGradient
       id="linearGradient3314">
      <stop
         id="stop3316"
         style="stop-color:#ef2929;stop-opacity:1"
         offset="0" />
      <stop
         id="stop3318"
         style="stop-color:#a40000;stop-opacity:1"
         offset="1" />
    </linearGradient>
    <radialGradient
       cx="24.745657"
       cy="45.809402"
       r="12.088862"
       fx="24.745657"
       fy="45.809402"
       id="radialGradient3526"
       xlink:href="#linearGradient3481"
       gradientUnits="userSpaceOnUse"
       gradientTransform="matrix(1,0,0,0.1409396,0,39.353044)" />
    <linearGradient
       x1="40.0625"
       y1="9.5466547"
       x2="40.0625"
       y2="42.5"
       id="linearGradient3528"
       xlink:href="#linearGradient3314"
       gradientUnits="userSpaceOnUse"
       gradientTransform="translate(0,0.8773324)" />
    <linearGradient
       x1="35.325249"
       y1="4.6747499"
       x2="35.325249"
       y2="9.921875"
       id="linearGradient3530"
       xlink:href="#linearGradient3326"
       gradientUnits="userSpaceOnUse" />
    <linearGradient
       x1="24.0625"
       y1="16.002333"
       x2="24.0625"
       y2="43.377331"
       id="linearGradient3532"
       xlink:href="#linearGradient3406"
       gradientUnits="userSpaceOnUse" />
    <linearGradient
       x1="40.093861"
       y1="10.718638"
       x2="40.093861"
       y2="42.531361"
       id="linearGradient3534"
       xlink:href="#linearGradient3338"
       gradientUnits="userSpaceOnUse" />
    <linearGradient
       x1="35.325249"
       y1="15.169"
       x2="35.325249"
       y2="4.6747499"
       id="linearGradient3536"
       xlink:href="#linearGradient3352"
       gradientUnits="userSpaceOnUse" />
    <linearGradient
       x1="35.829494"
       y1="18.661135"
       x2="35.829494"
       y2="36.303154"
       id="linearGradient3538"
       xlink:href="#linearGradient3398"
       gradientUnits="userSpaceOnUse" />
    <linearGradient
       x1="35.829494"
       y1="18.661135"
       x2="35.829494"
       y2="36.303154"
       id="linearGradient3540"
       xlink:href="#linearGradient3398"
       gradientUnits="userSpaceOnUse" />
    <linearGradient
       x1="35.829494"
       y1="18.661135"
       x2="35.829494"
       y2="36.303154"
       id="linearGradient3542"
       xlink:href="#linearGradient3398"
       gradientUnits="userSpaceOnUse" />
    <linearGradient
       x1="35.829494"
       y1="18.661135"
       x2="35.829494"
       y2="36.303154"
       id="linearGradient3544"
       xlink:href="#linearGradient3398"
       gradientUnits="userSpaceOnUse" />
    <linearGradient
       x1="35.829494"
       y1="18.661135"
       x2="35.829494"
       y2="36.303154"
       id="linearGradient3546"
       xlink:href="#linearGradient3398"
       gradientUnits="userSpaceOnUse" />
    <linearGradient
       x1="35.829494"
       y1="18.661135"
       x2="35.829494"
       y2="36.303154"
       id="linearGradient3548"
       xlink:href="#linearGradient3398"
       gradientUnits="userSpaceOnUse" />
    <linearGradient
       x1="8.03125"
       y1="-20.099033"
       x2="30.106527"
       y2="28.154247"
       id="linearGradient3550"
       xlink:href="#linearGradient3383"
       gradientUnits="userSpaceOnUse" />
  </defs>
  <g
     id="layer1">
    <g
       transform="translate(-0.1094429,-0.7564078)"
       id="g3509">
      <path
         d="m 36.834519,45.809402 a 12.088862,1.7037994 0 1 1 -24.177724,0 12.088862,1.7037994 0 1 1 24.177724,0 z"
         transform="matrix(1.4362416,0,0,1,-11.540742,-1.4603995)"
         id="path3479"
         style="opacity:0.4;fill:url(#radialGradient3526);fill-opacity:1;fill-rule:nonzero;stroke:none" />
      <path
         d="m 13.59375,3.46875 c -0.251021,0.042019 -0.461481,0.2038927 -0.5625,0.4375 -0.101019,0.2336073 -0.07882,0.5070724 0.0625,0.71875 l 1.75,2.8125 c -1.158224,0.8401977 -2.247075,1.7945738 -3.1875,2.90625 -1.45442,1.719269 -2.5915865,3.751288 -3.4375,5.96875 -1.017273,-0.716169 -5.201e-4,-0.005 -2.65625,-1.875 C 5.3991215,14.322602 5.1966643,14.277612 5,14.3125 c -0.3081128,0.04947 -0.5624644,0.288021 -0.625,0.59375 -0.062535,0.30573 0.079811,0.614765 0.34375,0.78125 1.7098084,1.203963 2.0531731,1.42771 3,2.09375 -0.6345827,2.09742 -1,4.347521 -1,6.6875 0,0.483296 0.00247,0.962413 0.03125,1.4375 -1.5214803,0.101626 -0.00179,0.0025 -3.1875,0.21875 -0.4142136,0.02589 -0.7446384,0.398286 -0.71875,0.8125 0.025888,0.414214 0.3982864,0.713388 0.8125,0.6875 1.8540087,-0.125848 2.0007515,-0.131968 3.25,-0.21875 0.4185462,3.32999 1.5281403,6.390665 3.1875,9 -1.1849043,1.078378 -0.0045,-0.0074 -2.71875,2.46875 -0.3106602,0.276142 -0.3386424,0.75184 -0.0625,1.0625 0.2761424,0.31066 0.7518398,0.338642 1.0625,0.0625 1.4815981,-1.351642 1.6096536,-1.473722 2.59375,-2.375 0.232676,0.311431 0.438633,0.642598 0.6875,0.9375 3.093824,3.666109 7.482375,6.031261 12.40625,6.03125 4.923863,10e-7 9.312426,-2.36514 12.40625,-6.03125 0.259557,-0.307569 0.508071,-0.643221 0.75,-0.96875 1.18512,1.083249 0.01243,-0.0057 2.65625,2.40625 0.31066,0.276142 0.786358,0.24816 1.0625,-0.0625 0.276142,-0.31066 0.24816,-0.786358 -0.0625,-1.0625 -1.587842,-1.448567 -1.760664,-1.602276 -2.78125,-2.53125 1.643773,-2.604613 2.712646,-5.652145 3.125,-8.96875 1.527381,0.10638 0.0013,0.021 3.375,0.25 0.414214,0.02589 0.755362,-0.273286 0.78125,-0.6875 0.02589,-0.414214 -0.273286,-0.786612 -0.6875,-0.8125 -1.896025,-0.1287 -2.052914,-0.130839 -3.3125,-0.21875 0.02879,-0.475159 0.0625,-0.95413 0.0625,-1.4375 0,-2.315564 -0.346827,-4.546282 -0.96875,-6.625 0.95319,-0.669001 -0.01252,0.009 3.0625,-2.15625 0.306337,-0.190131 0.44244,-0.569935 0.3125,-0.90625 C 43.713812,14.444935 43.354594,14.247271 43,14.3125 c -0.112291,0.01746 -0.219147,0.0602 -0.3125,0.125 -1.556543,1.09604 -1.804242,1.286992 -2.71875,1.9375 -0.84754,-2.243648 -2.031104,-4.294869 -3.5,-6.03125 C 35.543412,9.2499074 34.511538,8.3002054 33.375,7.46875 L 35.15625,4.625 c 0.16048,-0.244298 0.154312,-0.5642599 0,-0.8125 C 35.001938,3.5642597 34.727594,3.4329619 34.4375,3.46875 34.218386,3.4993764 34.02397,3.6251749 33.90625,3.8125 L 32.125,6.625 C 29.736247,5.1854117 26.987228,4.3437437 24.0625,4.34375 c -2.900389,0 -5.594143,0.8325013 -7.96875,2.25 l -1.75,-2.78125 c -0.158873,-0.2541307 -0.453776,-0.3892944 -0.75,-0.34375 z"
         id="path3430"
         style="fill:#2e3436;fill-opacity:1;fill-rule:evenodd;stroke:none" />
      <path
         d="m 12.46875,11.471082 c 1.20504,-1.389618 1.186036,-1.402378 0,0 z m 0,0 c -2.7213004,3.393323 -4.4062499,7.957207 -4.40625,13 0,10.446943 7.168,18.906249 16,18.90625 8.832,0 15.999998,-8.459307 16,-18.90625 0,-5.042792 -1.68495,-9.606677 -4.40625,-13 -3.200691,2.234156 -7.807468,4.59375 -11.59375,4.59375 -3.786283,0 -8.393059,-2.359594 -11.59375,-4.59375 z m 23.1875,0 c -1.201691,-1.389126 -1.189107,-1.40311 0,0 z"
         id="path3285"
         style="fill:url(#linearGradient3528);fill-opacity:1;fill-rule:nonzero;stroke:none" />
      <path
         d="m 24.0625,5.5335824 c -4.568749,0 -8.677446,2.3010166 -11.59375,5.9374996 3.200691,2.234156 7.807467,4.59375 11.59375,4.59375 3.786282,0 8.393059,-2.359594 11.59375,-4.59375 C 32.739946,7.8345989 28.631249,5.5335823 24.0625,5.5335824 z"
         id="path3280"
         style="fill:#555753;fill-opacity:1;fill-rule:nonzero;stroke:none" />
      <path
         d="m 24.0625,5.21875 c -4.179068,0 -7.92322,2.0376711 -10.71875,5.28125 3.115853,2.081858 7.35309,4.125 10.71875,4.125 3.365659,0 7.602897,-2.043142 10.71875,-4.125 C 31.98572,7.2564211 28.241568,5.2187499 24.0625,5.21875 z"
         transform="translate(0,0.8773324)"
         id="path3324"
         style="opacity:0.8;fill:none;stroke:url(#linearGradient3530);stroke-width:1.08800006;stroke-linecap:square;stroke-linejoin:round;stroke-miterlimit:4;stroke-opacity:1;stroke-dasharray:none;stroke-dashoffset:0" />
      <path
         d="m 23.0625,16.002332 0,27.3125 c 0.334547,0.02467 0.660214,0.0625 1,0.0625 0.339786,0 0.665453,-0.03783 1,-0.0625 l 0,-27.3125 c -0.336306,0.03332 -0.674412,0.0625 -1,0.0625 -0.325588,0 -0.663694,-0.02918 -1,-0.0625 z"
         id="rect3290"
         style="fill:url(#linearGradient3532);fill-opacity:1;fill-rule:nonzero;stroke:none" />
      <path
         d="m 12.59375,11.21875 c -2.501064,3.271095 -4.0624999,7.598395 -4.0625,12.375 0,10.232548 6.998532,18.437499 15.53125,18.4375 8.532718,0 15.531248,-8.204952 15.53125,-18.4375 0,-4.776604 -1.561437,-9.103905 -4.0625,-12.375 -3.222347,2.188204 -7.637336,4.4375 -11.46875,4.4375 -3.831415,0 -8.246403,-2.249296 -11.46875,-4.4375 z"
         transform="translate(0,0.8773324)"
         id="path3336"
         style="opacity:0.8;fill:none;stroke:url(#linearGradient3534);stroke-width:1.0002228;stroke-linecap:square;stroke-linejoin:round;stroke-miterlimit:4;stroke-opacity:1;stroke-dasharray:none;stroke-dashoffset:0" />
      <path
         d="m 24.0625,5.21875 c -4.179068,0 -7.92322,2.0376711 -10.71875,5.28125 3.115853,2.081858 7.35309,4.125 10.71875,4.125 3.365659,0 7.602897,-2.043142 10.71875,-4.125 C 31.98572,7.2564211 28.241568,5.2187499 24.0625,5.21875 z"
         transform="translate(0,0.8773324)"
         id="path3350"
         style="opacity:0.8;fill:none;stroke:url(#linearGradient3536);stroke-width:1.08800006;stroke-linecap:square;stroke-linejoin:round;stroke-miterlimit:4;stroke-opacity:1;stroke-dasharray:none;stroke-dashoffset:0" />
      <g
         id="g3391"
         style="fill:url(#linearGradient3548);fill-opacity:1">
        <path
           d="m 17.857143,22.078341 a 2.6497695,2.5345621 0 1 1 -5.299539,0 2.6497695,2.5345621 0 1 1 5.299539,0 z"
           transform="matrix(1.4846065,0,0,1.4846065,-7.1932441,-10.353686)"
           id="path3364"
           style="fill:url(#linearGradient3538);fill-opacity:1;fill-rule:nonzero;stroke:none" />
        <path
           d="m 17.857143,22.078341 a 2.6497695,2.5345621 0 1 1 -5.299539,0 2.6497695,2.5345621 0 1 1 5.299539,0 z"
           transform="matrix(0.7118086,0,0,0.7118086,7.1851322,18.783479)"
           id="path3366"
           style="fill:url(#linearGradient3540);fill-opacity:1;fill-rule:nonzero;stroke:none" />
        <path
           d="m 17.857143,22.078341 a 2.6497695,2.5345621 0 1 1 -5.299539,0 2.6497695,2.5345621 0 1 1 5.299539,0 z"
           transform="matrix(0.6521739,0,0,0.6521739,20.612101,7.2143391)"
           id="path3368"
           style="fill:url(#linearGradient3542);fill-opacity:1;fill-rule:nonzero;stroke:none" />
        <path
           d="m 17.857143,22.078341 a 2.6497695,2.5345621 0 1 1 -5.299539,0 2.6497695,2.5345621 0 1 1 5.299539,0 z"
           transform="matrix(0.9637067,0,0,0.9637067,15.196089,11.9216)"
           id="path3370"
           style="fill:url(#linearGradient3544);fill-opacity:1;fill-rule:nonzero;stroke:none" />
        <path
           d="m 17.857143,22.078341 a 2.6497695,2.5345621 0 1 1 -5.299539,0 2.6497695,2.5345621 0 1 1 5.299539,0 z"
           transform="matrix(0.6521739,0,0,0.6521739,24.18353,12.513878)"
           id="path3372"
           style="fill:url(#linearGradient3546);fill-opacity:1;fill-rule:nonzero;stroke:none" />
      </g>
      <path
         d="m 24.0625,5.53125 c -4.433061,0 -8.41595,2.1072407 -11.3125,5.53125 -2.9012289,3.429549 -4.71875,8.175253 -4.71875,13.40625 -10e-8,2.344839 0.3722956,4.582339 1.03125,6.65625 9.459121,-5.423636 19.675314,-9.582574 30.34375,-12.15625 -0.773085,-3.029834 -2.15613,-5.726608 -4,-7.90625 C 32.509699,7.6384912 28.495549,5.5312393 24.0625,5.53125 z"
         id="path3378"
         style="opacity:0.6;fill:url(#linearGradient3550);fill-opacity:1;fill-rule:nonzero;stroke:none" />
    </g>
  </g>
</svg>
